<svg version="1.0" xmlns="http://www.w3.org/2000/svg"
 width="180.000000pt" height="180.000000pt" viewBox="0 0 180.000000 180.000000"
 preserveAspectRatio="xMidYMid meet">

<g transform="translate(0.000000,180.000000) scale(0.100000,-0.100000)"
fill="#00ff00" stroke="none">
<path fill="" stroke="green" d="M790 1790 c-8 -5 -27 -10 -41 -10 -32 0 -168 -44 -224 -73 -179 -90
-341 -250 -428 -423 -53 -105 -97 -274 -97 -374 0 -81 34 -245 70 -339 104
-268 365 -492 630 -541 36 -7 75 -16 88 -21 39 -15 174 -10 268 10 343 74 583
280 690 594 111 325 39 643 -206 911 -97 105 -298 218 -440 247 -30 6 -63 15
-72 20 -23 12 -219 11 -238 -1z m502 -254 c82 -34 133 -78 175 -154 33 -60 37
-74 37 -137 0 -77 -29 -149 -80 -200 l-26 -27 30 -31 c17 -18 43 -58 58 -90
81 -179 -54 -385 -274 -417 -42 -6 -88 -26 -177 -75 -66 -36 -162 -87 -213
-113 -88 -43 -98 -46 -175 -46 -71 0 -91 4 -147 31 -79 37 -138 92 -170 158
-49 99 -27 247 47 317 29 27 29 31 -3 65 -80 87 -101 210 -53 314 48 102 138
170 256 193 54 10 109 35 252 111 100 54 199 104 219 111 61 22 178 17 244
-10z"/>
<path stroke="green" d="M1020 1314 c-58 -31 -109 -59 -113 -63 -5 -5 9 -17 30 -27 21 -11 73
-39 117 -63 70 -39 84 -43 131 -39 67 6 111 36 126 88 26 85 -38 160 -135 160
-43 0 -68 -10 -156 -56z"/>
<path stroke="green" d="M570 1132 c-46 -20 -90 -78 -90 -117 0 -30 38 -90 68 -107 58 -34
111 -24 238 44 63 34 111 65 107 69 -5 4 -56 32 -115 63 -107 56 -162 68 -208
48z"/>
<path stroke="green" d="M1031 860 c-63 -33 -117 -62 -120 -66 -7 -7 6 -15 133 -81 107 -56
143 -63 199 -39 46 19 69 49 74 99 7 60 -17 103 -70 128 -65 29 -92 24 -216
-41z"/>
<path  stroke="green" d="M585 682 c-155 -54 -104 -268 60 -250 37 5 255 113 255 127 0 4 -17
15 -37 26 -21 10 -68 36 -105 57 -67 38 -134 54 -173 40z"/>
</g>
</svg>
